# Blender 4.2.3 LTS
# www.blender.org
mtllib skybox.mtl
o Icosphere_Icosphere.001
v 1.761354 2.122012 5.420986
v -4.611376 2.122007 3.350321
v -4.611376 2.122007 -3.350321
v 1.761354 2.122011 -5.420986
v 5.699967 2.121984 -0.000000
v 0.000000 5.644748 -0.000000
v 6.060866 -0.728015 1.969266
v 6.060866 -0.728015 -1.969266
v 0.000000 -0.728015 6.372763
v 3.745819 -0.728015 5.155670
v -6.060866 -0.728015 1.969266
v -3.745819 -0.728015 5.155670
v -3.745819 -0.728016 -5.155670
v -6.060866 -0.728015 -1.969266
v 3.745819 -0.728016 -5.155670
v 0.000000 -0.728016 -6.372763
v 4.385667 2.622379 3.186363
v -1.675199 2.622388 5.155638
v -5.420977 2.622374 -0.000000
v -1.675199 2.622387 -5.155639
v 4.385667 2.622378 -3.186363
v 1.035292 4.693003 3.186349
v 3.350353 4.692985 -0.000000
v -2.710482 4.693003 1.969256
v -2.710482 4.693003 -1.969257
v 1.035292 4.693002 -3.186350
vn -0.4089 -0.6617 -0.6284
vn 0.4713 -0.6617 -0.5831
vn 0.7002 -0.6617 0.2680
vn -0.0385 -0.6617 0.7488
vn -0.7240 -0.6617 0.1947
vn -0.2680 -0.9435 0.1947
vn -0.4911 -0.7947 0.3568
vn -0.4089 -0.6617 0.6284
vn 0.1024 -0.9435 0.3151
vn 0.1876 -0.7947 0.5773
vn 0.4713 -0.6617 0.5831
vn 0.3313 -0.9435 -0.0000
vn 0.6071 -0.7947 -0.0000
vn 0.7002 -0.6617 -0.2680
vn 0.1024 -0.9435 -0.3151
vn 0.1876 -0.7947 -0.5773
vn -0.0385 -0.6617 -0.7488
vn -0.2680 -0.9435 -0.1947
vn -0.4911 -0.7947 -0.3568
vn -0.7240 -0.6617 -0.1947
vn -0.8897 -0.3304 0.3151
vn -0.7947 -0.1876 0.5773
vn -0.5746 -0.3304 0.7488
vn 0.0247 -0.3304 0.9435
vn 0.3035 -0.1876 0.9342
vn 0.5346 -0.3304 0.7779
vn 0.9050 -0.3304 0.2680
vn 0.9822 -0.1876 -0.0000
vn 0.9050 -0.3304 -0.2680
vn 0.5346 -0.3304 -0.7779
vn 0.3035 -0.1876 -0.9342
vn 0.0247 -0.3304 -0.9435
vn -0.5746 -0.3304 -0.7488
vn -0.7947 -0.1876 -0.5773
vn -0.8897 -0.3304 -0.3151
vn -0.3066 -0.1256 0.9435
vn 0.8026 -0.1256 0.5831
vn 0.8026 -0.1256 -0.5831
vn -0.3066 -0.1256 -0.9435
vn -0.9921 -0.1256 -0.0000
vt 0.530313 0.484734
vt 0.505705 0.853883
vt 0.630314 0.528821
vt 0.330313 0.484734
vt 0.305705 0.853883
vt 0.430313 0.528822
vt 0.130315 0.484734
vt 0.105707 0.853883
vt 0.230314 0.528821
vt 0.930315 0.484734
vt 0.905707 0.853883
vt 1.028514 0.528822
vt 0.730314 0.484732
vt 0.705706 0.853882
vt 0.830314 0.528821
vt 0.464549 0.853882
vt 0.592431 1.005950
vt 0.664550 0.853883
vt 0.714549 0.853883
vt 1.098861 0.853883
vt 0.030315 0.528822
vt 0.264548 0.853883
vt 0.799999 -0.002013
vt 0.900000 -0.002013
vt 1.000000 -0.002013
vt 0.000000 -0.002013
vt 0.100000 -0.002013
vt 0.200001 -0.002013
vt 0.299999 -0.002013
vt 0.400000 -0.002013
vt 0.500000 -0.002013
vt 0.600000 -0.002013
vt 0.700001 -0.002013
s 0
f 1/1/1 22/2/1 17/3/1
f 2/4/2 24/5/2 18/6/2
f 3/7/3 25/8/3 19/9/3
f 4/10/4 26/11/4 20/12/4
f 5/13/5 23/14/5 21/15/5
f 23/16/6 6/17/6 26/18/6
f 23/14/7 26/11/7 21/15/7
f 21/15/8 26/11/8 4/10/8
f 26/18/9 6/17/9 25/19/9
f 26/11/10 25/20/10 20/12/10
f 20/21/11 25/8/11 3/7/11
f 25/19/12 6/17/12 24/19/12
f 25/8/13 24/5/13 19/9/13
f 19/9/14 24/5/14 2/4/14
f 24/19/15 6/17/15 22/22/15
f 24/5/16 22/2/16 18/6/16
f 18/6/17 22/2/17 1/1/17
f 22/22/18 6/17/18 23/16/18
f 22/2/19 23/14/19 17/3/19
f 17/3/20 23/14/20 5/13/20
f 8/23/21 5/13/21 21/15/21
f 8/23/22 21/15/22 15/24/22
f 15/24/23 21/15/23 4/10/23
f 16/25/24 4/10/24 20/12/24
f 16/26/25 20/21/25 13/27/25
f 13/27/26 20/21/26 3/7/26
f 14/28/27 3/7/27 19/9/27
f 14/28/28 19/9/28 11/29/28
f 11/29/29 19/9/29 2/4/29
f 12/30/30 2/4/30 18/6/30
f 12/30/31 18/6/31 9/31/31
f 9/31/32 18/6/32 1/1/32
f 10/32/33 1/1/33 17/3/33
f 10/32/34 17/3/34 7/33/34
f 7/33/35 17/3/35 5/13/35
f 15/24/36 4/10/36 16/25/36
f 13/27/37 3/7/37 14/28/37
f 11/29/38 2/4/38 12/30/38
f 9/31/39 1/1/39 10/32/39
f 7/33/40 5/13/40 8/23/40
